:FULLY-SPECIFIED
:FORCE-ALL-JOINTS-BE-3DOF
:DEGREES
453
root 10.5333 17.0674 27.6365 6.64122 1.0814 1.07699
lfemur -17.7216 1.61679 -25.4559
ltibia 20.4587 -0 0
lfoot -8.13889 6.54712 0.0604093
ltoes 3.12332 -0 0
rfemur -10.7325 6.75359 17.5382
rtibia 29.5957 -0 0
rfoot -2.32804 1.5515 1.31515
rtoes -17.1141 0 0
lowerback -6.74362 -0.404491 -2.58432
upperback -1.7954 -0.382518 1.27004
thorax 2.0884 -0.207271 2.72488
lowerneck -19.9346 -4.7522 -12.3018
upperneck 23.4366 -6.0232 11.8355
head 11.7825 -2.37593 5.56537
lclavicle 1.08556e-14 -5.65723e-15 -2.79191e-31
lhumerus -33.1437 -11.5777 89.0111
lradius 25.8472 -0 0
lwrist 0.604127 0 0
lhand -11.4664 -24.3539 0.0602468
lfingers 7.12502 -0 0
lthumb 14.5684 5.07124 0.0486273
rclavicle 1.08556e-14 -5.65723e-15 -2.79191e-31
rhumerus -45.0163 8.62597 -87.9921
rradius 33.3399 -0 0
rwrist -15.945 0 0
rhand -28.3282 -27.5635 -0.0893341
rfingers 7.12502 -0 0
rthumb -1.7028 -57.5229 -0.0867835
454
root 10.5418 17.0715 27.7629 6.59006 1.16444 1.1835
lfemur -16.8586 1.60908 -25.571
ltibia 19.8904 -0 0
lfoot -8.32815 6.50645 0.0610811
ltoes 3.03807 -0 0
rfemur -11.5915 6.98091 17.3173
rtibia 29.5408 -0 0
rfoot -2.96101 1.2843 1.32993
rtoes -17.0597 0 0
lowerback -6.70531 -0.526461 -2.65067
upperback -1.76318 -0.541164 1.27202
thorax 2.11305 -0.287572 2.75063
lowerneck -19.977 -4.67897 -12.2151
upperneck 23.4855 -5.92916 11.7755
head 11.7908 -2.33193 5.54484
lclavicle 1.06928e-14 -5.87557e-15 -2.82293e-31
lhumerus -32.5899 -11.8987 88.9666
lradius 26.0943 -0 0
lwrist 0.811931 0 0
lhand -11.6037 -24.4098 0.0609166
lfingers 7.12502 -0 0
lthumb 14.4361 5.02442 0.0491679
rclavicle 1.06928e-14 -5.87557e-15 -2.82293e-31
rhumerus -45.183 8.62318 -87.9372
rradius 33.4459 -0 0
rwrist -16.0491 0 0
rhand -28.4113 -27.4264 -0.0903273
rfingers 7.12502 -0 0
rthumb -1.78298 -57.385 -0.0877483
455
root 10.5504 17.0756 27.8892 6.53904 1.24757 1.28994
lfemur -15.9955 1.6031 -25.6861
ltibia 19.3221 -0 0
lfoot -8.51741 6.46578 0.0616186
ltoes 2.95283 -0 0
rfemur -12.4519 7.20492 17.0928
rtibia 29.4859 -0 0
rfoot -3.59405 1.01696 1.34175
rtoes -17.0054 0 0
lowerback -6.66686 -0.648386 -2.71711
upperback -1.73098 -0.699812 1.27392
thorax 2.13767 -0.367883 2.77633
lowerneck -20.0192 -4.60568 -12.1285
upperneck 23.5344 -5.83507 11.7156
head 11.7991 -2.28792 5.52432
lclavicle 1.053e-14 -6.09391e-15 -2.84775e-31
lhumerus -32.0351 -12.2194 88.9188
lradius 26.3413 -0 0
lwrist 1.01974 0 0
lhand -11.741 -24.4657 0.0614524
lfingers 7.12502 -0 0
lthumb 14.3039 4.9776 0.0496003
rclavicle 1.053e-14 -6.09391e-15 -2.84775e-31
rhumerus -45.3498 8.62055 -87.8824
rradius 33.5519 -0 0
rwrist -16.1532 0 0
rhand -28.4943 -27.2894 -0.0911219
rfingers 7.12502 -0 0
rthumb -1.86316 -57.2471 -0.0885202
456
root 10.559 17.0797 28.0156 6.48818 1.3308 1.39631
lfemur -15.1324 1.59886 -25.8013
ltibia 18.7538 -0 0
lfoot -8.70667 6.4251 0.0620217
ltoes 2.86758 -0 0
rfemur -13.3135 7.42555 16.8648
rtibia 29.431 -0 0
rfoot -4.22714 0.749494 1.35061
rtoes -16.9511 0 0
lowerback -6.62826 -0.770266 -2.78363
upperback -1.69877 -0.85846 1.27573
thorax 2.16226 -0.448206 2.80201
lowerneck -20.0613 -4.53233 -12.042
upperneck 23.5831 -5.74093 11.6558
head 11.8074 -2.24391 5.5038
lclavicle 1.03672e-14 -6.31225e-15 -2.86636e-31
lhumerus -31.4794 -12.5395 88.8678
lradius 26.5884 -0 0
lwrist 1.22754 0 0
lhand -11.8783 -24.5216 0.0618543
lfingers 7.12502 -0 0
lthumb 14.1716 4.93078 0.0499246
rclavicle 1.03672e-14 -6.31225e-15 -2.86636e-31
rhumerus -45.5165 8.61807 -87.8275
rradius 33.6578 -0 0
rwrist -16.2573 0 0
rhand -28.5773 -27.1523 -0.0917178
rfingers 7.12502 -0 0
rthumb -1.94334 -57.1092 -0.0890991
457
root 10.5675 17.0838 28.142 6.43748 1.41412 1.50261
lfemur -14.2693 1.59635 -25.9166
ltibia 18.1855 -0 0
lfoot -8.89593 6.38443 0.0622904
ltoes 2.78233 -0 0
rfemur -14.1764 7.64275 16.6334
rtibia 29.376 -0 0
rfoot -4.86027 0.481949 1.35653
rtoes -16.8968 0 0
lowerback -6.58952 -0.892102 -2.85023
upperback -1.66657 -1.01711 1.27745
thorax 2.18681 -0.528539 2.82765
lowerneck -20.1033 -4.45891 -11.9556
upperneck 23.6317 -5.64673 11.5961
head 11.8157 -2.1999 5.48329
lclavicle 1.02044e-14 -6.53059e-15 -2.87877e-31
lhumerus -30.9227 -12.8592 88.8136
lradius 26.8355 -0 0
lwrist 1.43534 0 0
lhand -12.0156 -24.5775 0.0621222
lfingers 7.12502 -0 0
lthumb 14.0393 4.88396 0.0501409
rclavicle 1.02044e-14 -6.53059e-15 -2.87877e-31
rhumerus -45.6833 8.61576 -87.7727
rradius 33.7638 -0 0
rwrist -16.3614 0 0
rhand -28.6603 -27.0152 -0.0921151
rfingers 7.12502 -0 0
rthumb -2.02352 -56.9713 -0.089485
458
root 10.5761 17.0879 28.2683 6.38692 1.49754 1.60884
lfemur -13.4061 1.59558 -26.0319
ltibia 17.6172 -0 0
lfoot -9.08519 6.34375 0.0624247
ltoes 2.69708 -0 0
rfemur -15.0407 7.85647 16.3986
rtibia 29.3211 -0 0
rfoot -5.49342 0.214355 1.35948
rtoes -16.8425 0 0
lowerback -6.55064 -1.01389 -2.91692
upperback -1.63437 -1.17576 1.27908
thorax 2.21132 -0.608884 2.85325
lowerneck -20.1452 -4.38543 -11.8692
upperneck 23.6802 -5.55249 11.5365
head 11.8239 -2.15588 5.46279
lclavicle 1.00416e-14 -6.74892e-15 -2.88497e-31
lhumerus -30.365 -13.1784 88.7561
lradius 27.0826 -0 0
lwrist 1.64315 0 0
lhand -12.1529 -24.6334 0.0622561
lfingers 7.12502 -0 0
lthumb 13.907 4.83713 0.050249
rclavicle 1.00416e-14 -6.74892e-15 -2.88497e-31
rhumerus -45.85 8.6136 -87.7178
rradius 33.8698 -0 0
rwrist -16.4655 0 0
rhand -28.7433 -26.8781 -0.0923137
rfingers 7.12502 -0 0
rthumb -2.1037 -56.8334 -0.089678
459
root 10.5846 17.0919 28.3947 6.33652 1.58105 1.715
lfemur -12.543 1.59654 -26.1472
ltibia 17.0489 -0 0
lfoot -9.27445 6.30307 0.0624247
ltoes 2.61184 -0 0
rfemur -15.9063 8.06665 16.1605
rtibia 29.2662 -0 0
rfoot -6.12658 -0.0532552 1.35948
rtoes -16.7881 0 0
lowerback -6.51162 -1.13564 -2.9837
upperback -1.60217 -1.33441 1.28063
thorax 2.2358 -0.689239 2.87883
lowerneck -20.1869 -4.31189 -11.7828
upperneck 23.7286 -5.45819 11.477
head 11.8322 -2.11187 5.4423
lclavicle 9.87877e-15 -6.96726e-15 -2.88497e-31
lhumerus -29.8062 -13.497 88.6953
lradius 27.3297 -0 0
lwrist 1.85095 0 0
lhand -12.2901 -24.6893 0.0622561
lfingers 7.12502 -0 0
lthumb 13.7747 4.79031 0.050249
rclavicle 9.87877e-15 -6.96726e-15 -2.88497e-31
rhumerus -46.0167 8.6116 -87.6629
rradius 33.9757 -0 0
rwrist -16.5695 0 0
rhand -28.8264 -26.741 -0.0923137
rfingers 7.12502 -0 0
rthumb -2.18388 -56.6955 -0.089678
460
root 10.5932 17.096 28.521 6.28627 1.66466 1.82109
lfemur -11.6799 1.59925 -26.2624
ltibia 16.4806 -0 0
lfoot -9.46371 6.26239 0.0622904
ltoes 2.52659 -0 0
rfemur -16.7732 8.27325 15.919
rtibia 29.2113 -0 0
rfoot -6.75973 -0.320849 1.35653
rtoes -16.7338 0 0
lowerback -6.47245 -1.25734 -3.05056
upperback -1.56998 -1.49306 1.28208
thorax 2.26025 -0.769605 2.90436
lowerneck -20.2285 -4.23828 -11.6966
upperneck 23.7769 -5.36385 11.4175
head 11.8404 -2.06784 5.42181
lclavicle 9.71596e-15 -7.1856e-15 -2.87877e-31
lhumerus -29.2463 -13.8149 88.6312
lradius 27.5768 -0 0
lwrist 2.05876 0 0
lhand -12.4274 -24.7452 0.0621222
lfingers 7.12502 -0 0
lthumb 13.6424 4.74348 0.0501409
rclavicle 9.71596e-15 -7.1856e-15 -2.87877e-31
rhumerus -46.1835 8.60976 -87.608
rradius 34.0817 -0 0
rwrist -16.6736 0 0
rhand -28.9094 -26.6039 -0.0921151
rfingers 7.12502 -0 0
rthumb -2.26406 -56.5576 -0.089485
461
root 10.6017 17.1001 28.6474 6.23618 1.74835 1.92711
lfemur -10.8168 1.60368 -26.3776
ltibia 15.9123 -0 0
lfoot -9.65297 6.22172 0.0620217
ltoes 2.44134 -0 0
rfemur -17.6414 8.4762 15.6743
rtibia 29.1563 -0 0
rfoot -7.39286 -0.588394 1.35061
rtoes -16.6795 0 0
lowerback -6.43314 -1.37899 -3.1175
upperback -1.53779 -1.65172 1.28344
thorax 2.28465 -0.849983 2.92987
lowerneck -20.2701 -4.16461 -11.6104
upperneck 23.8251 -5.26946 11.3582
head 11.8486 -2.02382 5.40133
lclavicle 9.55315e-15 -7.40394e-15 -2.86636e-31
lhumerus -28.6852 -14.1323 88.5639
lradius 27.8239 -0 0
lwrist 2.26656 0 0
lhand -12.5647 -24.8011 0.0618543
lfingers 7.12502 -0 0
lthumb 13.5101 4.69666 0.0499246
rclavicle 9.55315e-15 -7.40394e-15 -2.86636e-31
rhumerus -46.3502 8.60807 -87.5531
rradius 34.1877 -0 0
rwrist -16.7777 0 0
rhand -28.9924 -26.4668 -0.0917178
rfingers 7.12502 -0 0
rthumb -2.34424 -56.4197 -0.0890991
462
root 10.6103 17.1042 28.7738 6.18623 1.83214 2.03307
lfemur -9.95374 1.60985 -26.4928
ltibia 15.344 -0 0
lfoot -9.84223 6.18104 0.0616186
ltoes 2.35609 -0 0
rfemur -18.511 8.67546 15.4264
rtibia 29.1014 -0 0
rfoot -8.02595 -0.855856 1.34175
rtoes -16.6252 0 0
lowerback -6.39368 -1.5006 -3.18454
upperback -1.5056 -1.81037 1.28472
thorax 2.30903 -0.930371 2.95534
lowerneck -20.3115 -4.09088 -11.5242
upperneck 23.8732 -5.17501 11.2989
head 11.8568 -1.97979 5.38086
lclavicle 9.39034e-15 -7.62228e-15 -2.84775e-31
lhumerus -28.123 -14.449 88.4932
lradius 28.071 -0 0
lwrist 2.47436 0 0
lhand -12.702 -24.857 0.0614524
lfingers 7.12502 -0 0
lthumb 13.3778 4.64984 0.0496003
rclavicle 9.39034e-15 -7.62228e-15 -2.84775e-31
rhumerus -46.517 8.60654 -87.4982
rradius 34.2936 -0 0
rwrist -16.8818 0 0
rhand -29.0754 -26.3297 -0.0911219
rfingers 7.12502 -0 0
rthumb -2.42442 -56.2818 -0.0885202
463
root 10.6189 17.1083 28.9001 6.13644 1.91602 2.13895
lfemur -9.09066 1.61776 -26.6078
ltibia 14.7757 -0 0
lfoot -10.0315 6.14037 0.0610811
ltoes 2.27084 -0 0
rfemur -19.3819 8.87097 15.1753
rtibia 29.0465 -0 0
rfoot -8.65899 -1.1232 1.32993
rtoes -16.5709 0 0
lowerback -6.35408 -1.62216 -3.25166
upperback -1.4734 -1.96903 1.2859
thorax 2.33336 -1.01077 2.98078
lowerneck -20.3528 -4.01709 -11.4382
upperneck 23.9212 -5.08052 11.2397
head 11.8649 -1.93576 5.36039
lclavicle 9.22753e-15 -7.84061e-15 -2.82293e-31
lhumerus -27.5595 -14.765 88.4193
lradius 28.318 -0 0
lwrist 2.68217 0 0
lhand -12.8393 -24.9129 0.0609166
lfingers 7.12502 -0 0
lthumb 13.2455 4.60302 0.0491679
rclavicle 9.22753e-15 -7.84061e-15 -2.82293e-31
rhumerus -46.6837 8.60518 -87.4433
rradius 34.3996 -0 0
rwrist -16.9859 0 0
rhand -29.1584 -26.1927 -0.0903273
rfingers 7.12502 -0 0
rthumb -2.5046 -56.1439 -0.0877483
464
root 10.6274 17.1124 29.0265 6.0868 2 2.24477
lfemur -8.22759 1.62739 -26.7227
ltibia 14.2074 -0 0
lfoot -10.2207 6.0997 0.0604093
ltoes 2.1856 -0 0
rfemur -20.2541 9.06268 14.9211
rtibia 28.9916 -0 0
rfoot -9.29196 -1.3904 1.31515
rtoes -16.5165 0 0
lowerback -6.31433 -1.74367 -3.31887
upperback -1.44121 -2.12768 1.287
thorax 2.35767 -1.09118 3.00618
lowerneck -20.394 -3.94324 -11.3521
upperneck 23.9691 -4.98598 11.1806
head 11.8731 -1.89173 5.33993
lclavicle 9.06472e-15 -8.05895e-15 -2.79191e-31
lhumerus -26.9949 -15.0803 88.342
lradius 28.5651 -0 0
lwrist 2.88997 0 0
lhand -12.9766 -24.9688 0.0602468
lfingers 7.12502 -0 0
lthumb 13.1132 4.5562 0.0486273
rclavicle 9.06472e-15 -8.05895e-15 -2.79191e-31
rhumerus -46.8504 8.60396 -87.3884
rradius 34.5056 -0 0
rwrist -17.09 0 0
rhand -29.2415 -26.0556 -0.0893341
rfingers 7.12502 -0 0
rthumb -2.58478 -56.006 -0.0867835
